<svg width="21" height="20" viewBox="0 0 21 20" fill="none" xmlns="http://www.w3.org/2000/svg">
<rect x="0.5" width="20" height="20" rx="10" fill="#2AAA94"/>
<path d="M12.0598 10.499C12.0598 9.72103 11.9296 9.14323 11.6692 8.76562C11.412 8.38802 11.0523 8.19922 10.5901 8.19922C10.1311 8.19922 9.77464 8.38639 9.52073 8.76074C9.26683 9.13509 9.13987 9.71452 9.13987 10.499C9.13987 11.277 9.26683 11.8548 9.52073 12.2324C9.77464 12.61 10.1311 12.7988 10.5901 12.7988C10.8212 12.7988 11.0279 12.7533 11.2102 12.6621C11.3925 12.5677 11.5455 12.4261 11.6692 12.2373C11.7961 12.0485 11.8922 11.8109 11.9573 11.5244C12.0256 11.2347 12.0598 10.8929 12.0598 10.499ZM13.3928 10.499C13.3928 11.1631 13.3196 11.7246 13.1731 12.1836C13.0266 12.6426 12.8264 13.0137 12.5725 13.2969C12.3186 13.5801 12.0207 13.7852 11.6789 13.9121C11.3404 14.0358 10.9774 14.0977 10.5901 14.0977C10.2027 14.0977 9.83812 14.0342 9.49632 13.9072C9.15778 13.777 8.86155 13.5703 8.60765 13.2871C8.357 13.0007 8.15843 12.6296 8.01194 12.1738C7.86546 11.7148 7.79222 11.1566 7.79222 10.499C7.79222 9.83496 7.86546 9.27507 8.01194 8.81934C8.15843 8.36035 8.357 7.98926 8.60765 7.70605C8.86155 7.42285 9.15778 7.21777 9.49632 7.09082C9.83812 6.96387 10.2027 6.90039 10.5901 6.90039C10.9774 6.90039 11.3404 6.96549 11.6789 7.0957C12.0207 7.22266 12.3186 7.42936 12.5725 7.71582C12.8264 8.00228 13.0266 8.37337 13.1731 8.8291C13.3196 9.28483 13.3928 9.84147 13.3928 10.499Z" fill="white"/>
</svg>
