<svg width="138" height="19" viewBox="0 0 138 19" fill="none" xmlns="http://www.w3.org/2000/svg">
<path d="M11.2788 0L13.8111 6.53898H22.0057L15.3761 10.5803L17.9084 17.1193L11.2788 13.078L4.64931 17.1193L7.18157 10.5803L0.552026 6.53898H8.74659L11.2788 0Z" fill="#FAB437"/>
<path d="M40.4712 0L43.0035 6.53898H51.198L44.5685 10.5803L47.1008 17.1193L40.4712 13.078L33.8417 17.1193L36.3739 10.5803L29.7444 6.53898H37.939L40.4712 0Z" fill="#FAB437"/>
<path d="M68.9999 0L71.6811 6.53898H80.3577L73.3382 10.5803L76.0194 17.1193L68.9999 13.078L61.9804 17.1193L64.6616 10.5803L57.6421 6.53898H66.3187L68.9999 0Z" fill="#FAB437"/>
<path d="M97.5288 0L100.061 6.53898H108.256L101.626 10.5803L104.158 17.1193L97.5288 13.078L90.8993 17.1193L93.4316 10.5803L86.802 6.53898H94.9966L97.5288 0Z" fill="#FAB437"/>
<path d="M126.721 0L129.253 6.53898H137.448L130.819 10.5803L133.351 17.1193L126.721 13.078L120.092 17.1193L122.624 10.5803L115.994 6.53898H124.189L126.721 0Z" fill="#CBC2FF"/>
</svg>
